# xmcd
#
# Track frame offsets:
# 150
# 17122
# 35948
# 49629
# 66763
# 84723
# 97756
# 117140
# 135466
# 152483
# 168902
#
# Disc length: 2480 seconds
#
#
# Revision: 0
# Processed by: cddbd v1.5.2PL0 Copyright (c) Steve Scherf et al.
# Submitted via: FreeRIP 2.944 
#
DISCID=8309ae0b
DTITLE=Little Texas - The Missing Years
DYEAR=2007
DGENRE=Country
TTITLE0=Rebel
TTITLE1=Missing Years
TTITLE2=Gotta Get Me Down Home
TTITLE3=Knees
TTITLE4=Texas 101
TTITLE5=Party Life
TTITLE6=So Long
TTITLE7=When It's Gone
TTITLE8=You Ain't Seen Me Lately
TTITLE9=Your Blues
TTITLE10=Your Woman
EXTD=Issued 2007, Montage Music  Group 
EXTT0=
EXTT1=
EXTT2=
EXTT3=
EXTT4=
EXTT5=
EXTT6=
EXTT7=
EXTT8=
EXTT9=
EXTT10=
PLAYORDER=
